<svg width="87" height="85" xmlns="http://www.w3.org/2000/svg"><path d="M47.014 29.18H36.44v12.255h10.693c4.327 0 6.188-3.244 6.188-5.887-.06-2.883-1.923-6.368-6.307-6.368zm6.968 34.003L43.229 49.366h-6.79v13.817h-9.37V21.13h19.945c10.152 0 15.56 6.789 15.56 14.178-.061 5.466-1.684 10.333-9.734 13.217L65 63.183H53.982zm32.48-21.026l-8.17-8.007 3.896-10.756-10.843-3.653-1.157-11.384-11.355 1.396L52.851 0l-9.62 6.203L33.613 0 27.63 9.753 16.275 8.357 15.117 19.74 4.274 23.394 8.17 34.15l-8.172 8.007 8.172 8.006L4.274 60.92l10.843 3.653 1.157 11.383 11.356-1.397 5.983 9.754 9.618-6.202 9.62 6.202 5.982-9.753 11.355 1.396 1.157-11.383 10.843-3.653-3.897-10.757 8.172-8.006z" fill="#0232a0" fill-rule="evenodd"/></svg>
